# xmcd
#
# Track frame offsets:
#	150
#	15913
#	24146
#	40849
#	51951
#	63010
#	81783
#	94619
#	109516
#	123029
#	137229
#	154693
#
# Disc length: 2486 seconds
#
# Revision: 0
# Processed by: cddbd v1.4PL0 Copyright (c) Steve Scherf et al.
# Submitted via: dBpowerAMP V4.0
#
DISCID=7f09b40c
DTITLE=Joe Richardson - Stripped Down
DYEAR=2003
DGENRE=Blues
TTITLE0=Killin In The Name Of The Lord
TTITLE1=Watcha Tryin To Do
TTITLE2=Lonely Times
TTITLE3=Ive Got One Thing
TTITLE4=Little Joey Got A Guitar
TTITLE5=The Leprechaun
TTITLE6=Never Get Over You
TTITLE7=Killin Ground
TTITLE8=Ill Be Goin There
TTITLE9=Shout It Out Loud
TTITLE10=Prayin
TTITLE11=Front Porch Blues
EXTD=
EXTT0=
EXTT1=
EXTT2=
EXTT3=
EXTT4=
EXTT5=
EXTT6=
EXTT7=
EXTT8=
EXTT9=
EXTT10=
EXTT11=
PLAYORDER=
